<?xml version="1.0" encoding="utf-8"?>
<!-- Generator: Adobe Illustrator 24.0.0, SVG Export Plug-In . SVG Version: 6.00 Build 0)  -->
<svg version="1.1" id="Warstwa_1" xmlns="http://www.w3.org/2000/svg" xmlns:xlink="http://www.w3.org/1999/xlink" x="0px" y="0px"
	 viewBox="0 0 57.2 28" style="enable-background:new 0 0 57.2 28;" xml:space="preserve">
<style type="text/css">
	.Dodaj_x0020_cień{fill:none;}
	.Okrągłe_x0020_narożniki_x0020__x0028_2_x0020_pkt_x002E__x0029_{fill:#FFFFFF;stroke:#000000;stroke-miterlimit:10;}
	.Aktywne_x0020_odbicie_x0020_X{fill:none;}
	.Miękka_x0020_faza{fill:url(#SVGID_1_);}
	.Zmierzch{fill:#FFFFFF;}
	.Foliage_GS{fill:#FFDD00;}
	.Pompadour_GS{fill-rule:evenodd;clip-rule:evenodd;fill:#51AEE2;}
	.st0{fill:#12100B;}
	.st1{fill:#F6A117;}
	.st2{fill:#FEC810;}
	.st3{fill:#FEEC2D;}
	.st4{fill:#E9730C;}
</style>
<linearGradient id="SVGID_1_" gradientUnits="userSpaceOnUse" x1="0" y1="0" x2="0.7071" y2="0.7071">
	<stop  offset="0" style="stop-color:#E6E6EB"/>
	<stop  offset="0.1738" style="stop-color:#E2E2E6"/>
	<stop  offset="0.352" style="stop-color:#D5D4D8"/>
	<stop  offset="0.5323" style="stop-color:#C0BFC2"/>
	<stop  offset="0.7139" style="stop-color:#A4A2A4"/>
	<stop  offset="0.8949" style="stop-color:#828282"/>
	<stop  offset="1" style="stop-color:#6B6E6E"/>
</linearGradient>
<g>
	<g>
		<path class="st0" d="M0.5,20.3c-0.1-0.1-0.3-0.1-0.4-0.2c0,0,0-0.1-0.1-0.1c0.2-0.1,0.4-0.3,0.6-0.4c0.4-0.2,0.9-0.3,1.4-0.4
			c0.3,0,0.6,0,0.9,0.1c0.4,0.1,0.7,0.3,0.9,0.5c0.2,0.2,0.3,0.4,0.4,0.7c0,0.2,0,0.4,0,0.6c0,0,0,0.1,0,0.1
			c-0.2,0.1-0.2,0.3-0.3,0.5c0,0.1-0.1,0.2-0.2,0.3c0,0-0.1,0.1-0.1,0.1c-0.1,0.1-0.1,0.1-0.2,0.2c0,0.1-0.1,0.2-0.2,0.2
			c-0.1,0.1-0.3,0.1-0.4,0.3c0,0-0.1,0.1-0.1,0.1c-0.1,0-0.3,0.1-0.4,0.1c0,0.1-0.1,0.3,0,0.4c0,0.1,0,0.1,0,0.2
			c0,0.2-0.1,0.4-0.1,0.6c0,0.3-0.1,0.6,0,0.8c0,0.1,0,0.2-0.1,0.2c-0.1,0.1-0.4,0.1-0.5-0.1c-0.2-0.4-0.3-0.8-0.4-1.2
			c-0.1-0.7-0.1-1.4-0.1-2.1c0-0.4,0-0.8,0-1.2c0-0.1,0-0.1,0-0.2c0-0.1,0-0.1,0-0.2C0.9,20.3,0.7,20.4,0.5,20.3z M3.3,21.2
			c0-0.1-0.2-0.8-0.3-0.9C2.9,20.1,2.8,20,2.6,20c-0.1,0-0.2,0-0.3,0c0,0-0.1,0-0.1,0c0.1,0.5,0.1,1.4,0.2,1.9
			C2.8,21.9,3.1,21.7,3.3,21.2z"/>
		<path class="st0" d="M5.4,24.6C5.3,24.8,5.2,24.8,5,25c-0.2,0.1-0.3,0.2-0.6,0.2c-0.2,0-0.4,0-0.5-0.2c-0.4-0.3-0.6-0.6-0.5-1.3
			c0.1-0.3,0.3-0.6,0.5-0.8c0.2-0.2,0.4-0.3,0.7-0.4c0.3-0.1,0.6-0.1,0.9-0.1c0.2,0,0.3,0.1,0.4,0.3c0.1,0,0.1-0.1,0.2-0.1
			c0.2,0,0.3,0,0.2,0.2c0,0.1,0,0.2,0.1,0.4c0.1,0.4,0.2,0.7,0.2,1c0,0.2,0.1,0.4,0.1,0.7c0,0.2,0,0.5,0,0.7c-0.1,0.1-0.2,0.1-0.4,0
			c-0.3-0.2-0.5-0.4-0.6-0.8c0-0.2-0.1-0.4-0.2-0.6C5.6,24.3,5.5,24.5,5.4,24.6z M4.8,23.5c-0.1,0.1-0.2,0.4-0.2,0.6
			c0,0.2,0.2,0.4,0.4,0.2c0.3-0.2,0.5-0.5,0.6-0.8c0-0.1,0.1-0.2-0.1-0.2c0,0,0-0.1,0-0.1c0-0.1,0-0.1,0-0.1
			C5.2,23.1,4.9,23.3,4.8,23.5z"/>
		<path class="st0" d="M9.4,23c-0.1,0-0.3,0.1-0.4-0.1c0,0-0.1,0-0.1,0c-0.3,0-0.5,0.2-0.7,0.4c0.1,0,0.1,0.1,0.2,0.1
			c0.1,0.1,0.2,0.1,0.4,0.2c0.4,0.1,0.7,0.4,1,0.6c0.1,0.1,0.2,0.2,0.3,0.3c0,0.1,0,0.1,0,0.2c0,0,0,0,0,0.1
			c0.1,0.2-0.1,0.3-0.3,0.4c-0.3,0.1-0.6,0.3-0.9,0.3c-0.2,0-0.4,0-0.5,0c-0.2,0-0.3-0.1-0.4-0.1c-0.1,0-0.1-0.1-0.2-0.1
			c-0.2-0.1-0.4-0.2-0.6-0.4c0-0.2,0.1-0.3,0.3-0.3c0.1,0,0.1-0.1,0.2-0.1c0,0,0.1,0,0.1,0c0.1,0.1,0.3,0,0.4,0
			c0.2,0,0.3-0.1,0.5-0.1c0,0,0.1,0,0.1,0c-0.1-0.1-0.1-0.1-0.2-0.1c-0.2-0.1-0.4-0.1-0.6-0.2c-0.2-0.1-0.3-0.2-0.4-0.4
			c-0.1-0.2-0.1-0.4-0.1-0.6c0-0.1,0-0.2,0.1-0.3c0.1-0.1,0.2-0.1,0.2-0.2c0,0,0.1-0.1,0.1-0.1c0.1-0.1,0.2-0.2,0.4-0.3
			c0.1-0.1,0.2-0.1,0.3,0c0.1,0.1,0.3,0.1,0.4,0.1c0.2,0,0.3,0.1,0.5,0.1c0.1,0.1,0.2,0.1,0.3,0.2C9.7,22.9,9.6,23,9.4,23z"/>
		<path class="st0" d="M11.9,20c-0.1,0.1-0.1,0.1,0,0.2c0.1,0.2,0.1,0.5-0.1,0.6c-0.1,0-0.1,0.1-0.2,0.1c-0.3,0-0.6,0-0.9-0.1
			c-0.1,0-0.2-0.1-0.3-0.1c0.4-0.5,0.9-0.8,1.5-0.9c0,0,0,0,0.1,0C11.9,19.9,11.9,19.9,11.9,20z M11.5,25.2
			c-0.2-0.1-0.3-0.1-0.5-0.3c-0.1-0.1-0.3-0.3-0.3-0.4c0-0.1-0.1-0.2-0.1-0.3c-0.1-0.4-0.2-0.9-0.2-1.4c0-0.1,0-0.1,0-0.2
			c0-0.2,0-0.3,0.2-0.3c0.1,0,0.3,0,0.4,0c0.2,0,0.4,0.1,0.5,0.3c0.1,0.1,0.1,0.2,0.1,0.4c0,0.2,0.1,0.4,0.1,0.7c0,0.2,0,0.4,0,0.6
			c0,0.1-0.1,0.3-0.1,0.4c0,0.1,0,0.3,0,0.4c0,0,0,0.1,0.1,0.1c0,0,0,0.1,0.1,0.1C11.6,25.3,11.6,25.3,11.5,25.2z"/>
		<path class="st0" d="M13.8,25c0.4,0.1,0.8,0.1,1.1,0c0.1,0,0.3-0.1,0.4-0.1c0,0.1,0.1,0.2-0.1,0.3c0,0,0,0.1-0.1,0.1
			c0,0-0.1,0.1-0.1,0.1c-0.3,0.1-0.6,0.3-0.9,0.2c-0.3-0.1-0.6-0.1-0.8-0.1c-0.7-0.2-1.1-0.7-1.2-1.3c-0.1-0.5,0.1-1,0.3-1.5
			c0-0.1,0.1-0.2,0.1-0.2c0.1-0.1,0.2-0.1,0.4-0.2c0.2,0.1,0.4,0,0.5-0.1c0.2-0.1,0.4-0.1,0.6,0c0.1,0,0.2,0,0.3,0
			c0.3,0,0.4,0.1,0.4,0.3c0,0.3,0,0.7-0.2,0.9c0,0.2-0.1,0.3-0.2,0.5c-0.1,0.1-0.2,0.2-0.4,0.3c-0.1,0-0.1,0-0.1,0.1
			c-0.1,0.1-0.3,0.1-0.4,0.1c-0.1,0-0.2,0-0.3,0C13.3,24.7,13.5,24.8,13.8,25z M13.4,24c0.3-0.2,0.5-0.5,0.6-0.8
			c0.1-0.1,0.1-0.2-0.1-0.2c-0.6,0.1-0.7,0.6-0.8,1.2C13.2,24.1,13.3,24,13.4,24z"/>
		<path class="st0" d="M15.8,25.3c-0.1-0.3-0.2-0.6-0.3-0.9c0-0.2-0.1-0.4-0.1-0.7c0,0,0,0,0,0c-0.1-0.1,0-0.2,0-0.3
			c0-0.6,0-1.1,0-1.7c0-0.6,0-1.2,0-1.7c0,0-0.1-0.1-0.1-0.1c0-0.1-0.1-0.2-0.1-0.3c0-0.1,0-0.1,0.1-0.1c0.1,0,0.2,0,0.2,0
			c0.1,0.1,0.1,0.1,0.2,0.1c0.1,0,0.3-0.1,0.4-0.1c0.1,0,0.2,0,0.3,0.1c0,0,0.1,0.1,0.1,0.1c0.1,0.1,0.1,0.2,0.1,0.3
			c0,0.1,0,0.2,0,0.3c0,0,0,0,0,0h0c0,0,0,0,0-0.1c0.1,0.1,0.1,0.2,0.1,0.2c0,0.3,0,0.6,0.1,0.8c0.1,0.3,0,0.5,0,0.8
			c0,0,0,0.1,0,0.1c0,0,0,0.1,0,0.2c0.1,0,0.1,0,0.1-0.1c0.4-0.2,0.9-0.4,1.4-0.2c0.3,0.1,0.5,0.2,0.6,0.6c0,0,0,0.1,0,0.1
			c-0.1,0.1-0.2,0.3-0.3,0.4c-0.1,0.1-0.2,0.2-0.4,0.3c0,0-0.1,0.1-0.1,0.1c-0.2,0-0.3,0.1-0.4,0.2c0,0,0,0,0,0
			c0.4,0.3,0.7,0.5,1,0.8c0.1,0.1,0.2,0.2,0.3,0.3c0.1,0.1,0.1,0.1,0.3,0.1c0,0.1-0.1,0.2-0.3,0.2c-0.2,0-0.5,0-0.7-0.1
			c-0.2-0.1-0.5-0.3-0.7-0.4c-0.3-0.2-0.5-0.4-0.8-0.6c0,0-0.1,0-0.1-0.1c-0.1,0-0.1,0-0.2,0c-0.1,0-0.2,0-0.2,0.1
			c-0.1,0.1-0.1,0.2-0.1,0.3c0,0.1,0,0.1-0.1,0.2c0,0,0,0,0,0c0,0.1,0,0.3,0,0.4c0,0,0,0.1,0,0.1c-0.1,0.1,0,0.2,0,0.3
			c0.1,0.1,0,0.1-0.1,0.2C15.9,25.5,15.8,25.4,15.8,25.3z M17.1,23.1c0.2-0.1,0.4-0.2,0.5-0.5c-0.3-0.1-1,0.3-1.2,0.6
			C16.7,23.3,16.9,23.2,17.1,23.1z M16.6,20.7C16.6,20.7,16.6,20.7,16.6,20.7C16.6,20.7,16.6,20.7,16.6,20.7
			C16.6,20.7,16.6,20.7,16.6,20.7L16.6,20.7z"/>
		<path class="st0" d="M21.2,24.6c-0.1,0.2-0.2,0.3-0.4,0.4c-0.2,0.1-0.3,0.2-0.6,0.2c-0.2,0-0.4,0-0.5-0.2
			c-0.4-0.3-0.6-0.6-0.5-1.3c0.1-0.3,0.3-0.6,0.5-0.8c0.2-0.2,0.4-0.3,0.7-0.4c0.3-0.1,0.6-0.1,0.9-0.1c0.2,0,0.3,0.1,0.4,0.3
			c0.1,0,0.1-0.1,0.2-0.1c0.2,0,0.3,0,0.2,0.2c0,0.1,0,0.2,0.1,0.4c0.1,0.4,0.2,0.7,0.2,1c0,0.2,0.1,0.4,0.1,0.7c0,0.2,0,0.5,0,0.7
			c-0.1,0.1-0.2,0.1-0.4,0c-0.3-0.2-0.5-0.4-0.6-0.8c0-0.2-0.1-0.4-0.2-0.6C21.3,24.3,21.3,24.5,21.2,24.6z M20.5,23.5
			c-0.1,0.1-0.2,0.4-0.2,0.6c0,0.2,0.2,0.4,0.4,0.2c0.3-0.2,0.5-0.5,0.6-0.8c0-0.1,0.1-0.2-0.1-0.2c0,0,0-0.1,0-0.1
			c0-0.1,0-0.1,0-0.1C20.9,23.1,20.7,23.3,20.5,23.5z"/>
		<path class="st0" d="M27.4,25.3c0,0.1,0,0.3,0,0.4c0,0,0,0,0,0c-0.1-0.1-0.1-0.1-0.2-0.2c-0.1-0.2-0.2-0.4-0.3-0.6
			c-0.1-0.3-0.1-0.6-0.2-0.9c0-0.2-0.1-0.4-0.2-0.5c-0.1,0.2-0.1,0.4-0.2,0.7c-0.1,0.2-0.1,0.4-0.3,0.5c0,0-0.1,0.1-0.1,0.1
			c-0.2,0-0.4,0-0.6,0c-0.1,0-0.1-0.1-0.2-0.1c0-0.1-0.1-0.3-0.1-0.4c-0.1-0.3-0.1-0.5-0.1-0.8c0-0.2,0-0.4,0-0.6
			c0-0.1,0-0.3-0.1-0.4c-0.1-0.1,0-0.2,0-0.3c0-0.1,0.1-0.1,0.2-0.1c0.1,0,0.1,0,0.1,0c0.3,0,0.6,0.1,0.8,0.3
			c0.1,0.1,0.2,0.2,0.2,0.4c0,0.3,0.1,0.5,0.1,0.8c0-0.1,0.1-0.1,0.1-0.1c0.1-0.2,0.3-0.3,0.4-0.5c0,0,0.1-0.1,0.1-0.1
			c0.1,0,0.3-0.1,0.4-0.1c0.2,0,0.3,0,0.5,0.2c0.3,0.3,0.4,0.7,0.4,1.1c0,0.1,0,0.3,0,0.4c0,0.2-0.1,0.4-0.1,0.5c0,0-0.1,0-0.1,0.1
			C27.5,25,27.5,25.2,27.4,25.3z"/>
		<path class="st0" d="M30.2,24.6c-0.1,0.2-0.2,0.3-0.4,0.4c-0.2,0.1-0.3,0.2-0.6,0.2c-0.2,0-0.4,0-0.5-0.2
			c-0.4-0.3-0.6-0.6-0.5-1.3c0.1-0.3,0.3-0.6,0.5-0.8c0.2-0.2,0.4-0.3,0.7-0.4c0.3-0.1,0.6-0.1,0.9-0.1c0.2,0,0.3,0.1,0.4,0.3
			c0.1,0,0.1-0.1,0.2-0.1c0.2,0,0.3,0,0.2,0.2c0,0.1,0,0.2,0.1,0.4c0.1,0.4,0.2,0.7,0.2,1c0,0.2,0.1,0.4,0.1,0.7c0,0.2,0,0.5,0,0.7
			c-0.1,0.1-0.2,0.1-0.4,0c-0.3-0.2-0.5-0.4-0.6-0.8c0-0.2-0.1-0.4-0.2-0.6C30.3,24.3,30.2,24.5,30.2,24.6z M29.5,23.5
			c-0.1,0.1-0.2,0.4-0.2,0.6c0,0.2,0.2,0.4,0.4,0.2c0.3-0.2,0.5-0.5,0.6-0.8c0-0.1,0.1-0.2-0.1-0.2c0,0,0-0.1,0-0.1
			c0-0.1,0-0.1,0-0.1C29.9,23.1,29.7,23.3,29.5,23.5z"/>
		<path class="st0" d="M35.6,21.9c0.3,0.4,0.7,0.9,1,1.3c0.1,0.2,0.3,0.6,0.4,0.8c0.1,0.2,0.2,0.5,0.4,0.7c0.1,0.1,0.1,0.1,0.2,0.2
			c0,0.1,0,0.1-0.1,0.2c-0.1,0.1-0.2,0.1-0.4,0.1c-0.3-0.1-0.6-0.2-0.8-0.5c-0.1-0.1-0.1-0.2-0.1-0.3c-0.1-0.2-0.3-0.4-0.4-0.6
			c-0.1-0.3-0.4-0.7-0.6-0.9c0,0,0-0.1-0.1-0.1c0,0-0.1,0-0.1-0.1c0-0.1-0.1-0.1-0.1-0.2c0,0.2,0,0.4,0,0.7c0,0.3,0,0.5,0,0.7
			c0,0,0,0,0,0c0.1,0.2,0,0.4,0,0.6c0,0,0,0.1,0,0.1c0,0.2-0.1,0.4-0.3,0.4c-0.2,0-0.3,0-0.4-0.2c-0.1-0.1-0.1-0.2-0.1-0.3
			c-0.1-0.3-0.2-0.6-0.2-0.9c0-0.4-0.1-0.7-0.1-1.1c0-0.1,0-0.3,0-0.5c0-0.4,0.1-0.9,0.1-1.3c0-0.4,0.1-0.9,0.1-1.3
			c0-0.1,0-0.2,0.2-0.2c0.1,0,0.1,0,0.2,0c0.2,0,0.3,0.1,0.3,0.3c0,0.1,0,0.2,0.1,0.4c0.1,0.4,0.2,0.9,0.2,1.3c0,0,0,0.1,0,0.1
			c0.1,0,0.2-0.1,0.2-0.1c0.2-0.2,0.4-0.5,0.7-0.7c0.1-0.1,0.2-0.2,0.4-0.3c0.2-0.2,0.4-0.2,0.7-0.2c0,0.1,0,0.2,0,0.2
			c0,0,0,0,0,0.1c-0.2,0.4-0.5,0.9-0.9,1.2C35.8,21.7,35.7,21.8,35.6,21.9L35.6,21.9z"/>
		<path class="st0" d="M37.9,23.6c0-0.1,0-0.2,0-0.3c0-0.1,0-0.3,0-0.5c0-0.2,0-0.4,0-0.7c0,0,0-0.1,0-0.1c0-0.1,0-0.2,0.1-0.2
			c0.1,0,0.2,0,0.3-0.1c0,0,0.1,0.1,0.1,0.1c0.3,0.1,0.4,0.4,0.4,0.7c0,0.1,0.1,0.2,0.1,0.4c0,0,0,0.1,0.1,0.1c0,0,0.1,0,0.1,0
			c0.3-0.2,0.6-0.3,0.9-0.3c0.1,0,0.1,0,0.2,0.1c0.1,0,0,0.1,0,0.1c0,0-0.1,0.1-0.1,0.1c-0.2,0.2-0.4,0.4-0.6,0.7
			c-0.1,0.1-0.2,0.3-0.2,0.4c0,0.1,0,0.2-0.1,0.3c-0.1,0.2,0,0.5-0.1,0.7c0,0.1,0,0.2,0,0.3c-0.2,0-0.4,0-0.6-0.1c0,0-0.1,0-0.2,0
			c-0.1,0-0.2,0-0.2-0.1c0,0-0.1-0.1-0.1-0.1c-0.1-0.1-0.1-0.2-0.2-0.4c0,0,0-0.1,0-0.1c0.1-0.1,0.1-0.3,0.1-0.4c0,0,0,0,0-0.1
			c0,0,0,0,0.1,0.1C38,23.9,38,23.8,37.9,23.6C37.9,23.6,37.9,23.6,37.9,23.6z M37.9,23.7c0.1,0.1,0,0.2,0,0.3
			C37.9,23.9,37.9,23.8,37.9,23.7z"/>
		<path class="st0" d="M43.3,27c0,0.1-0.1,0.1-0.1,0.2c-0.1,0.1-0.2,0.3-0.4,0.4c-0.1,0.1-0.2,0.2-0.4,0.3C42.2,28,42,28,41.8,28
			c-0.2-0.1-0.4-0.1-0.7-0.1c0-0.1-0.1-0.1-0.1-0.2c0-0.1,0-0.2,0-0.2c0-0.2,0-0.4,0.1-0.5c0.3-0.5,0.7-0.8,1.2-1c0,0,0,0,0.1,0
			c0.2,0,0.3-0.2,0.3-0.4c0.1-0.4,0.1-0.7,0.1-1.1c0-0.3,0-0.5,0-0.8c0-0.1,0-0.1,0-0.2c-0.1,0.2-0.1,0.4-0.1,0.5
			c0,0.1,0,0.2-0.1,0.3c0,0.1-0.1,0.3-0.1,0.4c-0.1,0.1-0.2,0.2-0.3,0.3c-0.2,0.1-0.4,0.1-0.6,0.1c-0.1,0-0.3,0-0.4,0
			c-0.2,0-0.4-0.1-0.5-0.4c-0.2-0.5-0.3-1-0.3-1.5c0-0.4,0-0.8,0.1-1.2c0-0.2,0-0.3,0.1-0.5c0.1,0,0.2,0,0.3,0c0.1,0,0.1,0,0.2,0
			c0.2,0,0.4,0.3,0.4,0.5c0.1,0.3,0.1,0.7,0.1,1c0,0.2,0,0.4,0,0.6c0,0.2,0,0.4,0.1,0.5c0,0,0,0.1,0,0.2c0,0,0.1,0,0.1,0
			c0,0,0.1-0.1,0.1-0.1c0.1-0.3,0.3-0.6,0.5-0.9c0.1-0.3,0.2-0.6,0.3-1c0,0,0-0.1,0-0.1c-0.1-0.1,0-0.3,0-0.4
			c0.2-0.1,0.3-0.1,0.5-0.1c0.1,0,0.2,0,0.4,0c0.1,0,0.2,0.1,0.3,0.2c0.1,0.2,0.1,0.4,0.2,0.6c0.1,0.3,0.1,0.7,0.1,1
			c0,0.3,0,0.6,0,0.9c0,0.1-0.1,0.3-0.1,0.4c0,0.1,0,0.2,0,0.3c0,0.1,0,0.2-0.1,0.3c0,0.1-0.1,0.1-0.1,0.2c0,0.1,0,0.2,0,0.4
			c0,0,0,0.1,0.1,0.1c0.1,0.1,0.2,0.2,0.2,0.3c0.1,0.2,0.2,0.4,0.4,0.4c0.1,0,0.1,0.1,0.1,0.2c-0.1,0-0.2,0-0.2,0
			c-0.2-0.1-0.4-0.2-0.7-0.3c-0.1,0-0.1,0-0.2-0.1C43.5,26.7,43.4,26.8,43.3,27z M42.3,26.5c-0.4,0.1-0.8,0.5-0.8,0.9
			C41.9,27.2,42.1,26.8,42.3,26.5z"/>
		<path class="st0" d="M47.2,25.3c0,0.1,0,0.3,0,0.4c0,0,0,0,0,0c-0.1-0.1-0.1-0.1-0.2-0.2c-0.1-0.2-0.2-0.4-0.3-0.6
			c-0.1-0.3-0.1-0.6-0.2-0.9c0-0.2-0.1-0.4-0.2-0.5c-0.1,0.2-0.1,0.4-0.2,0.7c-0.1,0.2-0.1,0.4-0.3,0.5c0,0-0.1,0.1-0.1,0.1
			c-0.2,0-0.4,0-0.6,0c-0.1,0-0.1-0.1-0.2-0.1c0-0.1-0.1-0.3-0.1-0.4c-0.1-0.3-0.1-0.5-0.1-0.8c0-0.2,0-0.4,0-0.6
			c0-0.1,0-0.3-0.1-0.4c-0.1-0.1,0-0.2,0-0.3c0-0.1,0.1-0.1,0.2-0.1c0.1,0,0.1,0,0.1,0c0.3,0,0.6,0.1,0.8,0.3
			c0.1,0.1,0.2,0.2,0.2,0.4c0,0.3,0.1,0.5,0.1,0.8c0-0.1,0.1-0.1,0.1-0.1c0.1-0.2,0.3-0.3,0.4-0.5c0,0,0.1-0.1,0.1-0.1
			c0.1,0,0.3-0.1,0.4-0.1c0.2,0,0.3,0,0.5,0.2c0.3,0.3,0.4,0.7,0.4,1.1c0,0.1,0,0.3,0,0.4c0,0.2-0.1,0.4-0.1,0.5c0,0-0.1,0-0.1,0.1
			C47.3,25,47.3,25.2,47.2,25.3z"/>
		<path class="st0" d="M49.4,20c-0.1,0.1-0.1,0.1,0,0.2c0.1,0.2,0.1,0.5-0.1,0.6c-0.1,0-0.1,0.1-0.2,0.1c-0.3,0-0.6,0-0.9-0.1
			c-0.1,0-0.2-0.1-0.3-0.1c0.4-0.5,0.9-0.8,1.5-0.9c0,0,0,0,0.1,0C49.5,19.9,49.4,19.9,49.4,20z M49.1,25.2
			c-0.2-0.1-0.3-0.1-0.5-0.3c-0.1-0.1-0.3-0.3-0.3-0.4c0-0.1-0.1-0.2-0.1-0.3c-0.1-0.4-0.2-0.9-0.2-1.4c0-0.1,0-0.1,0-0.2
			c0-0.2,0-0.3,0.2-0.3c0.1,0,0.3,0,0.4,0c0.2,0,0.4,0.1,0.5,0.3c0.1,0.1,0.1,0.2,0.1,0.4c0,0.2,0.1,0.4,0.1,0.7c0,0.2,0,0.4,0,0.6
			c0,0.1-0.1,0.3-0.1,0.4c0,0.1,0,0.3,0,0.4c0,0,0,0.1,0.1,0.1c0,0,0,0.1,0.1,0.1C49.1,25.3,49.1,25.3,49.1,25.2z"/>
		<path class="st0" d="M52.4,24.3c-0.2,0.2-0.4,0.4-0.4,0.7c-0.1,0.2-0.2,0.2-0.3,0.2c-0.4,0.1-0.9,0.1-1.2-0.1
			c-0.2-0.1-0.3-0.2-0.4-0.4c-0.2-0.3-0.3-0.6-0.4-1c0-0.2,0-0.5,0-0.7c0-0.1,0-0.1,0-0.2c0-0.2,0.1-0.3,0.2-0.4c0,0,0.1,0,0.1,0
			c0.3,0,0.5,0,0.8-0.1c0.1,0,0.1-0.1,0.2-0.1c0.2,0,0.4,0,0.7,0c0.3,0,0.6,0.3,0.5,0.6c0,0.1,0,0.2,0,0.3c0,0.1,0,0.1-0.1,0.1
			c-0.2,0.1-0.4,0.1-0.7,0.1c0,0,0,0-0.1,0c-0.1-0.2-0.4-0.2-0.5-0.4c-0.1,0.2-0.1,0.5-0.1,0.7c0,0.1,0.1,0.3,0.1,0.4
			c0,0.1,0.1,0.2,0.3,0.3c0.4,0.1,0.9,0.1,1.3-0.1c0,0,0.1,0,0.1,0c0,0,0,0,0.1,0C52.5,24.2,52.5,24.2,52.4,24.3z"/>
		<path class="st0" d="M55.9,27c0,0.1-0.1,0.1-0.1,0.2c-0.1,0.1-0.2,0.3-0.4,0.4c-0.1,0.1-0.2,0.2-0.4,0.3C54.8,28,54.6,28,54.4,28
			c-0.2-0.1-0.4-0.1-0.7-0.1c0-0.1-0.1-0.1-0.1-0.2c0-0.1,0-0.2,0-0.2c0-0.2,0-0.4,0.1-0.5c0.3-0.5,0.7-0.8,1.2-1c0,0,0,0,0.1,0
			c0.2,0,0.3-0.2,0.3-0.4c0.1-0.4,0.1-0.7,0.1-1.1c0-0.3,0-0.5,0-0.8c0-0.1,0-0.1,0-0.2c-0.1,0.2-0.1,0.4-0.1,0.5
			c0,0.1,0,0.2-0.1,0.3c0,0.1-0.1,0.3-0.1,0.4c-0.1,0.1-0.2,0.2-0.3,0.3c-0.2,0.1-0.4,0.1-0.6,0.1c-0.1,0-0.3,0-0.4,0
			c-0.2,0-0.4-0.1-0.5-0.4c-0.2-0.5-0.3-1-0.3-1.5c0-0.4,0-0.8,0.1-1.2c0-0.2,0-0.3,0.1-0.5c0.1,0,0.2,0,0.3,0c0.1,0,0.1,0,0.2,0
			c0.2,0,0.4,0.3,0.4,0.5c0.1,0.3,0.1,0.7,0.1,1c0,0.2,0,0.4,0,0.6c0,0.2,0,0.4,0.1,0.5c0,0,0,0.1,0,0.2c0,0,0.1,0,0.1,0
			c0,0,0.1-0.1,0.1-0.1c0.1-0.3,0.3-0.6,0.5-0.9c0.1-0.3,0.2-0.6,0.3-1c0,0,0-0.1,0-0.1c-0.1-0.1,0-0.3,0-0.4
			c0.2-0.1,0.3-0.1,0.5-0.1c0.1,0,0.2,0,0.4,0c0.1,0,0.2,0.1,0.3,0.2c0.1,0.2,0.1,0.4,0.2,0.6c0.1,0.3,0.1,0.7,0.1,1
			c0,0.3,0,0.6,0,0.9c0,0.1-0.1,0.3-0.1,0.4c0,0.1,0,0.2,0,0.3c0,0.1,0,0.2-0.1,0.3c0,0.1-0.1,0.1-0.1,0.2c0,0.1,0,0.2,0,0.4
			c0,0,0,0.1,0.1,0.1c0.1,0.1,0.2,0.2,0.2,0.3c0.1,0.2,0.2,0.4,0.4,0.4c0.1,0,0.1,0.1,0.1,0.2c-0.1,0-0.2,0-0.2,0
			c-0.2-0.1-0.4-0.2-0.6-0.3c-0.1,0-0.1,0-0.2-0.1C56,26.7,56,26.8,55.9,27z M54.9,26.5c-0.4,0.1-0.8,0.5-0.8,0.9
			C54.5,27.2,54.7,26.8,54.9,26.5z"/>
	</g>
	<path class="st1" d="M21,10.5l0.3,1c0.1,0.2,0.2,0.4,0.4,0.4h15c0.1,0,0.3-0.2,0.4-0.4l0.3-1c0.2-0.5,0-1-0.4-1H25.2
		c-0.1,0-0.2,0.1-0.2,0.1c-0.2,0.3-0.6,1.1-1.4,1.1c-0.7,0-1.2-0.7-1.4-1.1c-0.1-0.1-0.1-0.1-0.2-0.1h-0.7C21,9.5,20.8,9.9,21,10.5z
		"/>
	<path class="st2" d="M21.3,5.1l-0.3,1c-0.2,0.5,0,1,0.4,1h15.6c0.4,0,0.6-0.4,0.4-1l-0.3-1c-0.1-0.2-0.2-0.4-0.4-0.4h-15
		C21.5,4.7,21.3,4.9,21.3,5.1z"/>
	<path class="st2" d="M24.2,7.1c0,0-0.3,0-0.4,0.1c0,0-0.1,0.1-0.1,0.1c0,0.1,0,0.3,0,0.3l0,0.1c0,0.1,0.1,0.2,0.1,0.2
		c0.2,0.3,0.8,1.3,0.4,1.9c-0.1,0.2-0.4,0.3-0.5,0.3c0,0-0.1,0-0.1,0c-0.2,0-0.4-0.1-0.5-0.3c-0.5-0.6,0.2-1.6,0.4-1.9
		c0-0.1,0.1-0.1,0.1-0.2l0-0.1c0,0,0.1-0.2,0-0.3c0-0.1-0.1-0.1-0.1-0.1C23.3,7.1,23,7.1,23,7.1H24.2z"/>
	<path class="st3" d="M23.9,2.4c-0.5,0-0.7-0.5-0.3-1.2l0,0l0,0C24.3,0,25.5,0,26.5,0h5.3c1,0,2.2,0,2.9,1.2l0,0l0,0
		c0.4,0.6,0.3,1.2-0.3,1.2H23.9z"/>
	<path class="st4" d="M23.9,14.2c-0.5,0-0.7,0.5-0.3,1.2l0,0l0,0c0.7,1.2,1.9,1.2,2.9,1.2h5.3c1,0,2.2,0,2.9-1.2l0,0l0,0
		c0.4-0.6,0.3-1.2-0.3-1.2H23.9z"/>
</g>
</svg>
